<svg width="150" height="150" viewBox="0 0 150 150" fill="none" xmlns="http://www.w3.org/2000/svg">
<circle cx="75.0004" cy="75" r="73.5" fill="#CB90F1" stroke="#303030" stroke-width="3"/>
<g clip-path="url(#clip0_175_23560)">
<path d="M48.8786 55.8035L61.8566 70.2157L74.5738 55.7835L87.993 70.1856L100.53 55.7734L112.234 68.0895L116.667 63.8771L100.319 46.6969L87.8425 61.0589L74.4534 46.6869L61.8064 61.0288L48.8686 46.6668L33.3332 63.9574L37.8765 68.0393L48.8786 55.8035Z" fill="#303030"/>
<path d="M87.8425 92.9221L74.4534 78.55L61.8064 92.902L48.8686 78.54L33.3332 95.8205L37.8765 99.9025L48.8786 87.6667L61.8566 102.079L74.5738 87.6567L87.993 102.059L100.53 87.6466L112.234 99.9626L116.667 95.7503L100.319 78.5601L87.8425 92.9221Z" fill="#303030"/>
</g>
<defs>
<clipPath id="clip0_175_23560">
<rect width="83.3336" height="55.412" fill="white" transform="translate(33.3332 46.6668)"/>
</clipPath>
</defs>
</svg>
