<svg width="154" height="154" viewBox="0 0 154 154" fill="none" xmlns="http://www.w3.org/2000/svg">
<circle cx="77" cy="77" r="75.5" fill="#CB90F1" stroke="#303030" stroke-width="3"/>
<path d="M117.279 36.9111C108.275 30.1151 96.4904 33.8449 89.5114 41.0528C82.9899 47.7802 78.5279 59.5188 76.2969 68.5458C74.0659 59.5073 69.6038 47.7802 63.0824 41.0528C56.0919 33.8449 44.319 30.1151 35.3148 36.9111C28.8048 41.8194 28.3586 48.398 28.782 54.1986C29.1595 59.3243 30.6583 64.5414 33.141 69.278L39.0561 66.1889C37.031 62.3104 35.7382 57.8827 35.4407 53.7181C35.0631 48.5925 35.5894 45.0686 39.3307 42.2427C42.9575 39.5083 50.9891 38.1696 58.2886 45.6979C65.2448 52.8715 69.9471 68.0653 71.0683 76.5546C72.3383 86.1994 72.3726 113.086 72.3726 113.338V116.667H80.5072L80.4729 113.303C80.4729 113.04 80.2326 86.1765 81.514 76.5546C82.6352 68.0538 87.3375 52.8715 94.2937 45.6979C101.593 38.1696 109.625 39.5083 113.252 42.2427C116.993 45.0686 117.519 48.5925 117.142 53.7181C116.844 57.8827 115.551 62.3104 113.526 66.1889L119.441 69.278C121.924 64.5414 123.423 59.3243 123.8 54.1986C124.224 48.4094 123.777 41.8194 117.267 36.9111H117.279Z" fill="#303030"/>
</svg>
