<svg width="150" height="150" viewBox="0 0 150 150" fill="none" xmlns="http://www.w3.org/2000/svg">
<circle cx="75" cy="75" r="73.5" fill="#CB90F1" stroke="#303030" stroke-width="3"/>
<g clip-path="url(#clip0_175_23530)">
<path d="M50.5282 81.783C61.8477 81.783 71.0569 72.5738 71.0569 61.2543C71.0569 52.869 66.0009 45.6461 58.778 42.4636C64.5337 40.8384 70.7183 39.913 76.4966 39.913C93.2446 39.913 108.176 46.0186 114.518 55.476L119.98 51.8081C112.442 40.5901 95.3776 33.3334 76.4966 33.3334C63.9695 33.3334 49.6366 37.3399 40.4952 43.3551C34.2316 46.8876 29.9995 53.58 29.9995 61.2543C29.9995 72.5738 39.2086 81.783 50.5282 81.783ZM43.5536 49.1898L43.5762 49.2124C43.7003 49.1221 43.8358 49.0431 43.9599 48.9528C45.9236 47.9033 48.1582 47.3051 50.5395 47.3051C58.225 47.3051 64.4886 53.5574 64.4886 61.2543C64.4886 68.9511 58.2363 75.2034 50.5395 75.2034C42.8426 75.2034 36.5903 68.9511 36.5903 61.2543C36.5903 56.108 39.4005 51.605 43.5649 49.1898H43.5536Z" fill="#303030"/>
<path d="M100.016 68.2175C88.6964 68.2175 79.4873 77.4267 79.4873 88.7462C79.4873 97.1315 84.5433 104.354 91.7661 107.537C86.0104 109.162 79.8259 110.087 74.0476 110.087C57.2996 110.087 42.3799 103.982 36.0261 94.5245L30.5525 98.1811C38.0913 109.41 55.1553 116.667 74.0363 116.667C86.5634 116.667 100.896 112.661 110.038 106.645C116.29 103.124 120.533 96.4205 120.533 88.7462C120.533 77.4267 111.324 68.2175 100.005 68.2175H100.016ZM106.991 100.811L106.968 100.777C106.844 100.867 106.708 100.946 106.584 101.036C104.621 102.086 102.386 102.684 100.016 102.684C92.3304 102.684 86.0669 96.4318 86.0669 88.7349C86.0669 81.0381 92.3191 74.7858 100.016 74.7858C107.713 74.7858 113.965 81.0381 113.965 88.7349C113.965 93.8812 111.155 98.3842 106.991 100.799V100.811Z" fill="#303030"/>
</g>
<defs>
<clipPath id="clip0_175_23530">
<rect width="90.5452" height="83.3336" fill="white" transform="translate(29.9995 33.3334)"/>
</clipPath>
</defs>
</svg>
