<svg width="150" height="150" viewBox="0 0 150 150" fill="none" xmlns="http://www.w3.org/2000/svg">
<circle cx="75.0004" cy="75" r="73.5" fill="#CB90F1" stroke="#303030" stroke-width="3"/>
<g clip-path="url(#clip0_175_23556)">
<path d="M104.966 63.6972C98.6683 63.6972 93.0369 66.6508 89.3937 71.2479C89.3937 71.1904 89.3937 71.133 89.3937 71.0755C89.3937 63.7776 88.911 55.3765 88.141 48.6073C87.4284 42.4472 85.3942 38.034 82.0728 35.5056C79.1422 33.2645 76.1771 33.276 75.1657 33.3564C64.3626 33.4714 57.6968 44.7572 53.8353 55.2385C48.2498 38.7925 33.6426 35.3447 26.6665 35.8274L27.1032 42.4242C27.7238 42.3897 42.3885 41.7001 47.6407 57.5716C49.1348 62.0767 49.6289 73.7763 49.6864 77.9022L56.2947 77.8562C56.2947 73.397 57.7658 64.2143 59.1679 59.9965C61.6388 52.5148 67.0289 39.9762 75.3266 39.9762L75.476 40.0107L75.7863 39.9418C76.4644 39.9073 80.5098 40.1027 81.5672 49.3658C82.1418 54.4111 82.7739 62.7663 82.7739 71.087C82.7854 84.7863 82.0499 96.8307 72.7638 105.473C67.6495 110.231 60.6734 110.461 55.7086 109.806L54.8581 116.357C56.3407 116.552 57.9726 116.679 59.6851 116.679C65.328 116.679 71.9018 115.299 77.2574 110.312C82.7049 105.243 85.7275 99.3131 87.3825 92.8657C90.7269 99.1522 97.3352 103.45 104.943 103.45C115.896 103.45 124.814 94.5321 124.814 83.5796C124.814 72.627 115.896 63.7087 104.943 63.7087L104.966 63.6972ZM104.966 96.8307C97.657 96.8307 91.7037 90.8774 91.7037 83.5681C91.7037 76.2587 97.657 70.3055 104.966 70.3055C112.276 70.3055 118.229 76.2587 118.229 83.5681C118.229 90.8774 112.276 96.8307 104.966 96.8307Z" fill="#303030"/>
</g>
<defs>
<clipPath id="clip0_175_23556">
<rect width="98.1707" height="83.3336" fill="white" transform="translate(26.6665 33.3335)"/>
</clipPath>
</defs>
</svg>
