<svg width="150" height="150" viewBox="0 0 150 150" fill="none" xmlns="http://www.w3.org/2000/svg">
<circle cx="75" cy="75" r="73.5" fill="#CB90F1" stroke="#303030" stroke-width="3"/>
<g clip-path="url(#clip0_175_23535)">
<path d="M112.327 98.2044V98.7289C112.327 104.666 107.501 109.502 101.553 109.502C96.4656 109.502 92.4583 106.135 90.8324 100.481C88.8183 93.4629 91.5877 86.8331 94.5354 79.8152C95.7837 76.836 97.074 73.7519 98.0286 70.5629C101.994 57.2509 100.578 46.7923 93.9375 40.3303C89.1225 35.6413 82.0311 33.0397 74.9713 33.3649C68.5094 33.6586 62.7922 36.3441 58.8899 40.9073C52.6588 48.1979 52.8266 60.9225 55.1135 70.7307C53.3721 70.2377 51.5678 69.9859 49.753 69.9859C38.8643 69.9859 30.0001 78.8501 30.0001 89.7389C30.0001 100.628 38.8643 109.492 49.753 109.492C60.6418 109.492 69.5059 100.628 69.5059 89.7389C69.5059 86.2981 68.6038 82.9098 66.8834 79.9306C66.4323 78.4829 65.5407 76.9829 64.67 75.5247C63.9881 74.3813 63.2853 73.1959 63.0125 72.4092C60.0124 63.6604 59.4459 51.282 64.3343 45.5649C66.9358 42.5228 70.8277 40.729 75.286 40.5297C80.4052 40.2884 85.5034 42.1451 88.9127 45.4705C94.7347 51.1457 93.3395 61.1428 91.1366 68.5278C90.2974 71.3392 89.1435 74.1086 87.9056 77.0458C84.6117 84.9029 81.2129 93.0223 83.9299 102.463C86.4475 111.223 93.2031 116.667 101.543 116.667C111.435 116.667 119.481 108.621 119.481 98.7289V98.2044H112.316H112.327ZM62.3412 89.7389C62.3412 96.6728 56.6975 102.327 49.753 102.327C42.8085 102.327 37.1649 96.6833 37.1649 89.7389C37.1649 82.7944 42.8085 77.1507 49.753 77.1507C56.6975 77.1507 62.3412 82.7944 62.3412 89.7389Z" fill="#303030"/>
</g>
<defs>
<clipPath id="clip0_175_23535">
<rect width="89.4913" height="83.3336" fill="white" transform="translate(30.0001 33.3334)"/>
</clipPath>
</defs>
</svg>
