<svg width="150" height="150" viewBox="0 0 150 150" fill="none" xmlns="http://www.w3.org/2000/svg">
<circle cx="75.0004" cy="75" r="73.5" fill="#CB90F1" stroke="#303030" stroke-width="3"/>
<g clip-path="url(#clip0_175_23543)">
<path d="M116.637 90.7899H33.3633V96.667H116.637V90.7899Z" fill="#303030"/>
<path d="M95.3889 71.4208C95.64 70.1148 95.7706 68.7786 95.7706 67.4425C95.7706 55.9897 86.4578 46.6668 74.995 46.6668C63.5322 46.6668 54.2294 55.9897 54.2294 67.4425C54.2294 68.6179 54.3299 69.8033 54.5207 70.9586H33.3332V76.8357H62.6582L61.1111 72.8373C60.448 71.1194 60.1065 69.3111 60.1065 67.4525C60.1065 59.2347 66.7872 52.5539 75.005 52.5539C83.2229 52.5539 89.9036 59.2347 89.9036 67.4525C89.9036 69.4618 89.5118 71.4007 88.7383 73.2291L87.0203 77.3079H116.667V71.4308H95.3889V71.4208Z" fill="#303030"/>
</g>
<defs>
<clipPath id="clip0_175_23543">
<rect width="83.3336" height="50.0002" fill="white" transform="translate(33.3332 46.6668)"/>
</clipPath>
</defs>
</svg>
