<svg width="150" height="150" viewBox="0 0 150 150" fill="none" xmlns="http://www.w3.org/2000/svg">
<circle cx="75.0004" cy="75" r="73.5" fill="#CB90F1" stroke="#303030" stroke-width="3"/>
<g clip-path="url(#clip0_175_23565)">
<path d="M106.921 111.135C101.241 104.896 97.2033 93.1019 96.325 80.2357H101.23V72.605H96.1767C96.5532 58.0849 100.534 45.5609 106.853 39.0023L107.252 38.5917L101.663 33.3335L101.275 33.7441C93.6446 41.66 88.8768 56.1572 88.4662 72.6164H60.4868C59.9507 55.9975 55.1829 41.5003 47.7004 33.7441L47.3126 33.3335L41.7236 38.5917L42.1228 39.0023C48.1909 45.2985 52.2515 58.1305 52.7762 72.605H47.7461V80.2357H52.6964C51.9321 93.1247 47.9742 104.645 42.0544 111.135L41.6666 111.557L47.3925 116.656L47.7689 116.234C55.0232 108.272 59.6199 95.1664 60.4069 80.2243H88.5916C89.5041 95.1208 94.1921 108.557 101.195 116.234L101.572 116.656L107.298 111.557L106.91 111.135H106.921Z" fill="#303030"/>
</g>
<defs>
<clipPath id="clip0_175_23565">
<rect width="65.6426" height="83.3336" fill="white" transform="translate(41.6666 33.3335)"/>
</clipPath>
</defs>
</svg>
