<svg width="150" height="150" viewBox="0 0 150 150" fill="none" xmlns="http://www.w3.org/2000/svg">
<circle cx="75.0004" cy="75" r="73.5" fill="#CB90F1" stroke="#303030" stroke-width="3"/>
<g clip-path="url(#clip0_175_23548)">
<path d="M106.844 103.422L108.641 106.95C108.266 107.123 107.901 107.296 107.516 107.469C105.575 108.382 103.739 109.237 102.105 109.18C98.3469 109.035 93.8197 107.046 93.6083 98.424C93.6083 97.2802 93.6083 60.0252 93.6083 53.2489V52.1724L93.5891 51.8456C93.0796 47.0782 90.3499 43.5411 85.9189 41.9071C82.872 40.7825 80.0173 40.9363 79.7001 40.9555C75.7305 41.2343 72.376 42.676 69.9538 45.1366C68.6947 43.7141 67.0703 42.628 65.1192 41.9071C62.0722 40.7825 59.2176 40.9363 58.9004 40.9555C55.5459 41.1862 52.7008 42.2147 50.4132 44.0121C48.9234 40.6384 46.3475 37.8702 42.9449 35.9863C38.6581 33.6218 34.3328 33.3719 34.1502 33.3623L33.6696 33.3335L33.3332 39.8886L33.8138 39.9175C34.2848 39.9463 45.444 40.648 45.444 52.2013V102.557H52.0088V53.2778C52.1241 52.3935 53.0661 47.9433 59.3137 47.5107C59.5059 47.5107 61.2456 47.4531 62.9565 48.1163C64.9558 48.8948 65.965 50.2212 66.2245 52.355V102.547H72.7893V53.3066C72.9143 52.4127 73.9043 47.9433 80.1134 47.5204C80.2961 47.5204 81.9685 47.4723 83.6217 48.0778C85.6978 48.8468 86.7455 50.1828 87.0146 52.3647C87.0146 98.3471 87.0146 98.5009 87.0146 98.549C87.2549 108.968 92.7913 115.398 101.826 115.744C105.094 115.869 107.882 114.552 110.323 113.399C110.756 113.197 111.179 112.995 111.601 112.803L113.562 116.667L117.599 105.479L106.815 103.413L106.844 103.422Z" fill="#303030"/>
</g>
<defs>
<clipPath id="clip0_175_23548">
<rect width="84.2852" height="83.3336" fill="white" transform="translate(33.3332 33.3335)"/>
</clipPath>
</defs>
</svg>
