<svg width="150" height="150" viewBox="0 0 150 150" fill="none" xmlns="http://www.w3.org/2000/svg">
<path d="M148.5 74.9994C148.5 115.592 115.593 148.499 75 148.499C34.4071 148.499 1.5 115.592 1.5 74.9994C1.5 34.4068 34.4071 1.5 75 1.5C115.593 1.5 148.5 34.4068 148.5 74.9994Z" fill="#CB90F1" stroke="#303030" stroke-width="3"/>
<g clip-path="url(#clip0_175_23522)">
<path d="M115.989 36.1967C112.718 33.6795 108.345 32.7284 104.563 33.7143C98.8907 35.1991 96.0371 39.7115 94.1811 43.4815L93.6359 44.5255L93.5663 44.6531C89.1932 53.9795 83.4048 58.515 75.8764 58.515V58.5498C75.482 58.5382 75.0876 58.515 74.6816 58.515C67.1533 58.515 61.3649 53.9795 56.9917 44.6531L56.3885 43.4815C54.5441 39.7115 51.6789 35.2107 46.0182 33.7143C42.2366 32.7284 37.8634 33.6795 34.5922 36.1967C31.6226 38.4819 29.9986 41.6951 29.9986 45.2331H36.7614C36.7614 43.4351 37.8286 42.2403 38.7102 41.5559C40.2994 40.3263 42.5498 39.8043 44.2898 40.2683C46.7605 40.9179 48.4541 42.6695 50.3333 46.5091L50.9017 47.5995C53.8713 53.9099 57.5485 58.5382 61.9217 61.473C52.2705 66.2058 45.6122 76.1354 45.6122 87.5845C45.6122 103.616 58.6505 116.654 74.6816 116.654C90.7127 116.654 103.751 103.616 103.751 87.5845C103.751 76.4021 97.3943 66.6698 88.1144 61.8094C92.7079 58.8978 96.5707 54.1419 99.6563 47.5879L100.19 46.5787L100.225 46.4975C102.104 42.6463 103.809 40.8947 106.268 40.2567C108.008 39.8043 110.247 40.3147 111.848 41.5443C112.741 42.2287 113.797 43.4235 113.797 45.2215H120.559C120.559 41.6719 118.935 38.4703 115.977 36.1851L115.989 36.1967ZM96.9999 87.5961C96.9999 99.892 86.9892 109.903 74.6932 109.903C62.3973 109.903 52.3865 99.892 52.3865 87.5961C52.3865 75.3002 62.3973 65.2894 74.6932 65.2894C86.9892 65.2894 96.9999 75.3002 96.9999 87.5961Z" fill="#303030"/>
</g>
<defs>
<clipPath id="clip0_175_23522">
<rect width="90.584" height="83.334" fill="white" transform="translate(29.9986 33.3315)"/>
</clipPath>
</defs>
</svg>
