<svg width="150" height="150" viewBox="0 0 150 150" fill="none" xmlns="http://www.w3.org/2000/svg">
<circle cx="75" cy="75" r="73.5" fill="#CB90F1" stroke="#303030" stroke-width="3"/>
<g clip-path="url(#clip0_175_23539)">
<path d="M97.4232 102.778C103.096 96.6157 108.448 90.4722 111.633 82.9812C115.138 74.7364 115.901 64.6542 113.781 54.5909L113.027 51.0008L109.729 52.6027C109.371 52.7817 100.938 56.9654 95.0299 66.9533V51.4531L95.011 51.1516C94.0688 42.3226 85.9465 40.5135 81.7723 40.7867C77.7676 41.06 74.5357 42.5016 72.18 45.0646C70.9457 43.5664 69.3156 42.4357 67.3368 41.7007C64.4252 40.6265 61.6927 40.7679 61.3911 40.7867C57.999 41.0223 55.1439 42.1059 52.9014 43.9998C51.4974 40.57 48.9627 37.7621 45.5517 35.8681C41.3964 33.5784 37.2504 33.3523 37.0714 33.3334H36.9583L36.6662 39.053H36.7793C37.2598 39.0812 48.5198 39.7973 48.5198 51.4531V100.46H54.2488V52.4708C54.3807 51.5568 55.3418 46.9585 61.7492 46.5157C61.8246 46.5157 63.6526 46.4309 65.4711 47.1376C67.5347 47.9385 68.6277 49.3707 68.901 51.6227V100.479H74.6299V52.4708C74.7618 51.5568 75.7229 46.9585 82.1492 46.5157C82.168 46.5157 83.9489 46.4309 85.7298 47.0905C87.8781 47.882 89.0088 49.3236 89.2915 51.6227V100.253C89.2727 100.564 89.235 101.402 89.3292 102.543C83.1385 107.414 79.492 105.558 78.1163 104.851L78.0126 104.795L75.412 109.902L75.5156 109.958C77.5509 110.995 79.6616 111.522 81.7817 111.522C84.7121 111.522 87.7462 110.514 90.7991 108.526C91.3551 109.76 92.0523 110.872 92.8721 111.833C95.3126 114.707 98.7707 116.328 103.152 116.648H103.265L103.689 110.938H103.576C100.759 110.721 98.6953 109.807 97.263 108.14C96.481 107.226 95.8873 106.085 95.501 104.729C96.1417 104.107 96.7919 103.447 97.4232 102.759V102.778ZM106.365 80.7292C103.963 86.3733 100.099 91.2919 95.0299 96.8984V87.5606C95.5575 72.1358 103.849 63.646 108.872 59.8958C109.814 67.4622 108.947 74.661 106.365 80.7292Z" fill="#303030"/>
</g>
<defs>
<clipPath id="clip0_175_23539">
<rect width="78.2925" height="83.3336" fill="white" transform="translate(36.6662 33.3334)"/>
</clipPath>
</defs>
</svg>
